PathFileType	4	(X/Y/Z)	C:/Users/opensim2020/Desktop/walking_exp_matlab/subject02_walking11_straight_04.trc																																																																																																																												
DataRate	CameraRate	NumFrames	NumMarkers	Units	OrigDataRate	OrigDataStartFrame	OrigNumFrames																																																																																																																								
100	100	4	42	mm	100	3312	227																																																																																																																								
Frame#	Time	LFHD			RFHD			LBHD			RBHD			C7			T10			CLAV			STRN			RBAK			LSHO			LUPA			LELB			LFRM			LWRA			LWRB			LFIN			RSHO			RUPA			RELB			RFRM			RWRA			RWRB			RFIN			LASI			RASI			LPSI			RPSI			LTHI			LKNE			LTIB			LANK			LHEE			LTOE			RTHI			RKNE			RTIB			RANK			RHEE			RTOE			*39			*40			*41		
		X1	Y1	Z1	X2	Y2	Z2	X3	Y3	Z3	X4	Y4	Z4	X5	Y5	Z5	X6	Y6	Z6	X7	Y7	Z7	X8	Y8	Z8	X9	Y9	Z9	X10	Y10	Z10	X11	Y11	Z11	X12	Y12	Z12	X13	Y13	Z13	X14	Y14	Z14	X15	Y15	Z15	X16	Y16	Z16	X17	Y17	Z17	X18	Y18	Z18	X19	Y19	Z19	X20	Y20	Z20	X21	Y21	Z21	X22	Y22	Z22	X23	Y23	Z23	X24	Y24	Z24	X25	Y25	Z25	X26	Y26	Z26	X27	Y27	Z27	X28	Y28	Z28	X29	Y29	Z29	X30	Y30	Z30	X31	Y31	Z31	X32	Y32	Z32	X33	Y33	Z33	X34	Y34	Z34	X35	Y35	Z35	X36	Y36	Z36	X37	Y37	Z37	X38	Y38	Z38	X39	Y39	Z39	X40	Y40	Z40	X41	Y41	Z41	X42	Y42	Z42
																																																																																																																															
86	0.85	-132.49579	1754.62134	961.83789	-141.86998	1734.17578	1104.32019	-254.02205	1667.03857	941.98657	-274.87094	1644.15491	1084.16821	-300.6095	1525.70276	1007.92133	-341.29352	1248.48047	999.1239	-159.02823	1462.60547	1009.90076	-100.96128	1292.23303	1025.6217	-357.56735	1348.38269	1060.4303	-209.11543	1503.15808	834.04114	-188.75394	1302.01294	748.19043	-169.97266	1162.15161	735.7049	-136.33728	1034.31104	727.61829	-71.80866	918.69727	775.15204	-106.45923	915.12787	729.87469	-76.06848	856.29126	731.61963	-240.67404	1491.52478	1200.7428	-272.22156	1297.14343	1276.86414	-255.99397	1151.80139	1293.20142	-225.4059	1036.23315	1315.78333	-170.98441	911.0556	1302.69873	-220.84734	906.68579	1329.63611	-183.14822	844.00018	1335.08398	-81.41808	994.54401	894.30609	-122.87999	974.526	1149.05981	-301.34891	1038.17188	938.90967	-325.91675	1031.05212	1050.97131	-126.82186	681.35791	841.36774	-157.4604	478.8912	880.48383	-205.18513	288.32465	889.93469	-194.0491	69.67535	944.60706	-230.46539	43.50103	996.76184	-36.8013	35.00418	941.33075	-190.23427	675.18451	1226.23743	-176.66727	476.46609	1221.75464	-317.24963	362.11105	1196.65295	-440.86923	222.4865	1140.78857	-477.74298	195.23018	1068.94946	-388.13391	79.87203	1195.94336	-247.20134	1808.04541	1044.66162	-2845.83936	1034.43494	3357.44238	NaN	NaN	NaN
87	0.86	-123.95487	1754.90771	961.41125	-133.77733	1734.62939	1103.63892	-245.72313	1667.54321	940.93671	-266.63431	1644.70557	1083.04187	-292.56619	1526.37598	1006.53625	-334.0495	1249.58447	997.21759	-151.14323	1462.84155	1008.90326	-93.76051	1292.35474	1024.63025	-350.24249	1349.36243	1058.62378	-200.24571	1504.15381	833.1264	-177.74387	1303.2146	747.47516	-157.29773	1163.85571	734.09113	-121.53864	1036.58752	726.55432	-55.062	922.41742	774.32233	-89.77718	917.8761	728.94226	-58.12001	859.83716	730.87006	-233.30258	1491.88574	1199.41907	-266.66992	1297.89929	1275.43799	-252.01047	1152.4281	1291.80334	-222.22772	1036.72217	1314.67273	-168.91441	911.16492	1301.31592	-218.75328	906.96887	1328.15991	-181.41316	844.13739	1333.77075	-75.85944	994.61102	893.05701	-115.71229	976.14447	1147.90955	-295.25763	1038.5802	938.55377	-319.08453	1031.63245	1050.78381	-124.06711	681.11499	840.88544	-155.26724	478.72296	880.41705	-203.8112	288.29846	890.10754	-194.01123	69.71555	944.81787	-230.26251	43.46086	996.68665	-36.744	35.03598	941.07953	-178.24078	676.59515	1226.26636	-161.57494	478.20721	1221.27332	-299.80197	361.00891	1196.00305	-420.19586	218.36891	1140.63318	-456.27298	188.79672	1068.92664	-363.64142	79.15199	1199.14575	-238.9771	1808.43408	1043.78711	-2845.87207	1034.21533	3357.33374	NaN	NaN	NaN
88	0.87	-115.74926	1755.50525	960.57416	-125.54561	1734.85559	1103.10913	-237.30528	1668.26672	940.17145	-258.53488	1645.18372	1082.07764	-284.5253	1527.24487	1005.32379	-326.86978	1250.60266	995.53931	-143.32852	1463.19177	1008.09839	-86.53429	1292.39771	1023.48163	-342.88135	1350.25098	1056.8053	-191.55905	1505.1571	832.28058	-167.57831	1304.89563	746.20032	-144.84999	1165.62793	732.59967	-106.75314	1038.95959	725.31079	-38.71573	926.138	773.57513	-72.60267	920.93457	728.26355	-39.34214	863.66211	730.27734	-225.85085	1492.39539	1198.40784	-261.14505	1298.72595	1274.11584	-248.03566	1153.14832	1290.48083	-219.07378	1037.08435	1313.21045	-166.55388	911.09631	1299.99426	-216.55246	907.38843	1326.7594	-179.53064	844.41626	1332.49316	-70.40501	995.05127	891.63531	-108.51384	977.73938	1146.27002	-289.65698	1038.98499	938.49786	-312.27966	1032.3064	1051.13867	-121.32549	680.87463	840.63721	-153.04904	478.62482	880.22791	-202.66508	288.57278	890.19952	-193.97299	69.76474	944.9411	-230.47285	43.66853	997.03455	-36.72857	34.94206	940.88068	-166.56372	678.04797	1226.19971	-146.67015	479.8844	1220.6095	-282.24921	359.54037	1195.40063	-398.87955	213.54631	1140.66028	-434.03201	181.76147	1069.15295	-338.45963	77.5746	1201.75903	-230.59599	1808.81519	1042.80481	-2845.91284	1034.36401	3357.29565	NaN	NaN	NaN
89	0.88	-107.07304	1755.81079	960.33875	-117.43985	1735.15686	1102.47522	-229.024	1668.7467	939.3374	-250.52525	1645.69409	1081.35107	-276.51349	1527.90076	1004.03485	-319.85587	1251.54443	994.19275	-135.55386	1463.53308	1007.21423	-79.43774	1292.51343	1022.47046	-335.56012	1351.2489	1055.15759	-182.97789	1506.1239	831.44281	-157.2426	1306.43848	745.14392	-132.78542	1167.4032	731.1601	-92.35812	1041.42065	724.15356	-22.00007	930.14435	772.94971	-56.07926	924.19348	727.43445	-21.21266	867.60907	729.77136	-218.41541	1492.86035	1197.18604	-255.62057	1299.54578	1272.80664	-244.01855	1153.89099	1289.18164	-215.98064	1037.4856	1311.76599	-164.11552	911.28613	1298.81299	-214.23959	907.82709	1325.41406	-177.45795	844.73175	1331.34766	-65.54362	995.58301	890.36621	-101.1657	979.18182	1144.36267	-284.02264	1038.9248	938.66913	-305.53134	1033.04199	1051.90515	-118.61814	680.60583	840.54614	-150.62665	478.48434	880.39166	-201.46205	288.86792	890.35577	-193.92368	69.89468	945.09808	-230.42764	43.76104	997.15863	-36.69299	34.86029	940.69287	-155.12813	679.48108	1225.99854	-131.97256	481.41623	1219.75745	-264.76752	357.76273	1194.99304	-377.02832	208.00845	1140.9071	-411.1955	174.16336	1069.60986	-312.30597	75.44973	1203.97656	-222.25542	1809.3269	1042.33643	-2845.88086	1034.29785	3357.32837	NaN	NaN	NaN
